<svg xmlns="http://www.w3.org/2000/svg" viewBox="0 0 48 48" width="48px" height="48px"><path fill="#1565c0" d="M24 4A20 20 0 1 0 24 44A20 20 0 1 0 24 4Z"/><path fill="#43a047" d="M32.3 14.5L30.3 16c-.3.3-.4.7-.3 1.1l.9 1.1c.1.4-.1.9-.5 1.1-.5.3-1.7.9-1.7 1.2 0 .7.5 2.4.9 2.4 3.1 0 1.2-1.4 3.4-2.8 1.3-.8 3.4-1.2 3.9-1.2h2v14h-7c0 0 1.2 1.9 2.3 4 .5 1 1.7 3 1.7 3 5.1-3.9 8-9.8 8-16 0-6.4-3.1-12.2-7.8-15.8l-2.9 5.1C33 13.8 32.7 14.2 32.3 14.5zM14.1 25c.9 0 .9-.8.9-2 0-1.2-.2-3 3-3 1.3 0 3 0 3-2 0-.8 0-4 0-5 0-.3-.1-1.6-2.1-1.6-1.7 0-3-.3-3-1.5 0-.9.7-3 2.1-4.9C10.6 7.3 5.2 13.7 4.2 21.5L4 23c2.2 0 7.8 0 8 0C13.5 23 13.2 25 14.1 25zM23 31c-1.2 0-2 0-3.4-1.7C19 28.7 18.1 28 17.4 28s-1.6 0-1.6 0H15l-1 1 2 7v6.3c1 .4 2 .8 3 1.1.4-3.1 2.8-6.8 3-7.4.2-.4 1-2.3 1-2.3S23 31 23 31z"/><path fill="#7cb342" d="M37 19c0 0 1 1 1 4 0 1-2 2-5 2-5 0-5 2.9-5 4 0 3.6 4 4 4 4s4 0 7 4c0 0 .1.1.1.1C42.1 33.6 44 29 44 24c0-3.4-.9-6.7-2.4-9.5L41.3 14H41C38 14 38.3 18 37 19zM6 24c.6 1.2 2.1 2.3 3.3 3.2C10.1 27.8 13 29 13 31c0 3.4 2 7 2 9v1.8l2 .9c0 0 0-1.3 0-1.7 0-3 3.4-5 5-5 0 0 2-.2 2-3.5 0-.4-.4-1.5-1-1.5 0 0-.5 2-4.3 2-2 0-3.8-1.1-3.8-5h-1.9c-.6 0-1.1-.8-1.1-1.3S11.8 26 11 26c-.6 0-1-.3-1-.8 0-.4 0-.9 0-1 0-.6.5-1.3 2-1.3 0-1.8-2-3-2-4.5 0-1.4-1-3.5-3-4.5l-.3-.1c0 0-2.1 3.6-2.5 7.5L6 24z"/><path fill="#bbdefb" d="M24,45C12.4,45,3,35.6,3,24C3,12.4,12.4,3,24,3c11.6,0,21,9.4,21,21C45,35.6,35.6,45,24,45z M24,6 C14.1,6,6,14.1,6,24c0,9.9,8.1,18,18,18c9.9,0,18-8.1,18-18C42,14.1,33.9,6,24,6z"/></svg>